<?xml version="1.0" encoding="UTF-8"?>
<svg version="1.1" xmlns="http://www.w3.org/2000/svg" width="1000" height="1000">
<path d="M0 0 C2.73457336 -0.38768005 2.73457336 -0.38768005 6.26293945 -0.40405273 C7.58223953 -0.41673691 8.90153961 -0.42942108 10.26081848 -0.44248962 C11.71164098 -0.44043607 13.16246241 -0.4374463 14.61328125 -0.43359375 C16.10385882 -0.43815693 17.59443429 -0.44346292 19.08500671 -0.44947815 C22.21992488 -0.45843203 25.35458877 -0.45596737 28.48950195 -0.44604492 C32.47254716 -0.43465702 36.45469229 -0.45459565 40.43761921 -0.48396206 C43.52383362 -0.50249423 46.6098402 -0.50199642 49.69609642 -0.49632454 C51.1618493 -0.49617282 52.62761766 -0.50209116 54.09331703 -0.51461601 C68.34505066 -0.61907562 80.99906369 1.77057252 91.77734375 11.625 C97.38865899 17.55186598 99.12373415 24.02604573 99.4375 32.0625 C99.24155523 38.48785544 97.83923404 43.04638923 93.3515625 47.71484375 C90.15086555 50.57310805 86.77387084 52.94152499 83 55 C83.62962646 55.53500122 83.62962646 55.53500122 84.27197266 56.08081055 C90.16119543 61.47451844 93.62331748 67.83309063 97.375 74.8125 C98.31666016 76.52856445 98.31666016 76.52856445 99.27734375 78.27929688 C105.13023231 88.96745515 105.13023231 88.96745515 105 96 C100.51601216 96.09903473 96.03260708 96.17154483 91.54785156 96.21972656 C90.02299915 96.23981599 88.49822352 96.26709316 86.97363281 96.30175781 C84.77910402 96.35039796 82.58559531 96.37299396 80.390625 96.390625 C79.07094727 96.41157227 77.75126953 96.43251953 76.39160156 96.45410156 C73 96 73 96 70.73364258 94.30786133 C68.88393324 91.8454895 67.34810766 89.38693248 65.87109375 86.68359375 C65.31099609 85.67232422 64.75089844 84.66105469 64.17382812 83.61914062 C63.60083984 82.56919922 63.02785156 81.51925781 62.4375 80.4375 C61.29498205 78.35033033 60.14802907 76.26558066 58.99609375 74.18359375 C58.49263428 73.26118896 57.9891748 72.33878418 57.47045898 71.38842773 C55.30684625 67.87412865 53.94733209 66.31577736 50 65 C48.52034074 64.85426942 47.03596157 64.75336732 45.55078125 64.68359375 C44.70322266 64.64169922 43.85566406 64.59980469 42.98242188 64.55664062 C42.10134766 64.51732422 41.22027344 64.47800781 40.3125 64.4375 C39.41982422 64.39431641 38.52714844 64.35113281 37.60742188 64.30664062 C35.40509892 64.20064647 33.20266527 64.09857949 31 64 C31.01571045 65.29417847 31.01571045 65.29417847 31.03173828 66.61450195 C31.06583983 69.81810521 31.09090857 73.0216159 31.10986328 76.2253418 C31.1199157 77.61144048 31.1335597 78.99751799 31.15087891 80.38354492 C31.17515952 82.3766975 31.18542031 84.37000533 31.1953125 86.36328125 C31.21102295 88.16212769 31.21102295 88.16212769 31.22705078 89.99731445 C31 93 31 93 29 96 C26.14257812 96.38818359 26.14257812 96.38818359 22.53125 96.3984375 C21.23832031 96.40230469 19.94539062 96.40617188 18.61328125 96.41015625 C17.93861816 96.40387207 17.26395508 96.39758789 16.56884766 96.39111328 C14.50746417 96.37505813 12.4480411 96.39095597 10.38671875 96.41015625 C8.44732422 96.40435547 8.44732422 96.40435547 6.46875 96.3984375 C5.27701172 96.39505371 4.08527344 96.39166992 2.85742188 96.38818359 C1.44299805 96.19603271 1.44299805 96.19603271 0 96 C-2.57943456 92.13084816 -2.28077383 88.93118996 -2.25878906 84.4453125 C-2.2622937 83.57187195 -2.26579834 82.6984314 -2.26940918 81.79852295 C-2.27822185 78.90726812 -2.27237896 76.01625738 -2.265625 73.125 C-2.26697178 71.11865186 -2.26891243 69.11230405 -2.27142334 67.10595703 C-2.27437397 62.89938248 -2.27007888 58.69289282 -2.26074219 54.48632812 C-2.24934772 49.08901208 -2.25590751 43.69189493 -2.26788712 38.29458618 C-2.27510733 34.15110775 -2.27281704 30.00767662 -2.26763153 25.86419678 C-2.26629548 23.87384009 -2.26794119 21.88347914 -2.27259064 19.89312744 C-2.27765848 17.11353139 -2.26994196 14.33425937 -2.25878906 11.5546875 C-2.26283752 10.72862 -2.26688599 9.90255249 -2.27105713 9.05145264 C-2.2422038 5.17820209 -2.1987846 3.2981769 0 0 Z M31 23 C31 28.94 31 34.88 31 41 C34.50021192 41.05431363 37.99956758 41.09382567 41.5 41.125 C42.97339844 41.15013672 42.97339844 41.15013672 44.4765625 41.17578125 C54.71426043 41.3279504 54.71426043 41.3279504 63.5625 36.8125 C65.48979273 33.04170988 65.19118584 31.02025223 64 27 C61.12465661 24.12465661 58.35277134 23.05630997 54.27270508 22.88647461 C53.19915771 22.89171143 52.12561035 22.89694824 51.01953125 22.90234375 C49.27446289 22.90717773 49.27446289 22.90717773 47.49414062 22.91210938 C45.67172852 22.92467773 45.67172852 22.92467773 43.8125 22.9375 C41.97268555 22.94426758 41.97268555 22.94426758 40.09570312 22.95117188 C37.06378135 22.96296924 34.0318846 22.98090486 31 23 Z " fill="#FFFFFF" transform="translate(743,455)"/>
<path d="M0 0 C10.30072983 10.89759455 14.00809575 24.45951491 13.8046875 39.1953125 C13.00971585 53.30096331 8.94839781 64.96932429 -1.37890625 74.83984375 C-15.58746536 86.75753011 -34.53229046 88.97467199 -52.40673828 87.453125 C-66.26540448 86.00385272 -79.88050237 81.59415847 -89.68359375 71.140625 C-100.05021134 57.17245952 -102.16340887 41.35636866 -99.8828125 24.453125 C-97.51561696 13.72370615 -92.30617672 3.51292404 -83.34765625 -3.1015625 C-75.70028532 -7.76223706 -67.35036438 -12.15887055 -58.34765625 -13.1015625 C-57.41308594 -13.22015625 -56.47851562 -13.33875 -55.515625 -13.4609375 C-36.10676268 -15.47122657 -15.14824994 -13.56033022 0 0 Z M-61.87109375 19.74609375 C-67.01003054 27.2369778 -67.22178642 34.96623383 -66.34765625 43.8984375 C-64.67941672 51.63109494 -60.87699725 56.52428914 -54.34765625 60.8984375 C-48.66602242 63.73925441 -42.01121896 63.88048401 -35.9140625 62.24609375 C-29.45510413 59.70825682 -25.14659171 55.95285643 -22.31640625 49.57421875 C-19.15104413 40.23933139 -19.33102875 30.95106386 -23.34765625 21.8984375 C-26.87601526 15.98391261 -31.73445337 12.68751654 -38.34765625 10.8984375 C-48.24632359 9.54792165 -55.63562283 11.87345581 -61.87109375 19.74609375 Z " fill="#FFFFFF" transform="translate(714.34765625,466.1015625)"/>
<path d="M0 0 C10.30072983 10.89759455 14.00809575 24.45951491 13.8046875 39.1953125 C13.00971585 53.30096331 8.94839781 64.96932429 -1.37890625 74.83984375 C-15.58746536 86.75753011 -34.53229046 88.97467199 -52.40673828 87.453125 C-66.26540448 86.00385272 -79.88050237 81.59415847 -89.68359375 71.140625 C-100.05021134 57.17245952 -102.16340887 41.35636866 -99.8828125 24.453125 C-97.51561696 13.72370615 -92.30617672 3.51292404 -83.34765625 -3.1015625 C-75.70028532 -7.76223706 -67.35036438 -12.15887055 -58.34765625 -13.1015625 C-57.41308594 -13.22015625 -56.47851562 -13.33875 -55.515625 -13.4609375 C-36.10676268 -15.47122657 -15.14824994 -13.56033022 0 0 Z M-61.87109375 19.74609375 C-67.01003054 27.2369778 -67.22178642 34.96623383 -66.34765625 43.8984375 C-64.67941672 51.63109494 -60.87699725 56.52428914 -54.34765625 60.8984375 C-48.66602242 63.73925441 -42.01121896 63.88048401 -35.9140625 62.24609375 C-29.45510413 59.70825682 -25.14659171 55.95285643 -22.31640625 49.57421875 C-19.15104413 40.23933139 -19.33102875 30.95106386 -23.34765625 21.8984375 C-26.87601526 15.98391261 -31.73445337 12.68751654 -38.34765625 10.8984375 C-48.24632359 9.54792165 -55.63562283 11.87345581 -61.87109375 19.74609375 Z " fill="#FFFFFF" transform="translate(591.34765625,466.1015625)"/>
<path d="M0 0 C6.10388874 6.62336863 7.57467815 12.10042596 7.4609375 21.0859375 C7.125 23.625 7.125 23.625 5.125 25.625 C0.87455481 26.13885307 -3.40955926 26.04183362 -7.6875 26.0625 C-9.47124023 26.11180664 -9.47124023 26.11180664 -11.29101562 26.16210938 C-20.06972234 26.21632935 -20.06972234 26.21632935 -24.05078125 23.29296875 C-24.65277344 22.41253906 -25.25476563 21.53210938 -25.875 20.625 C-30.0062014 15.18920868 -33.27652156 12.32173916 -40.1953125 11.2734375 C-46.99393734 10.86850373 -52.36521823 12.63212085 -57.875 16.625 C-63.51126319 22.22166415 -64.51441433 29.98058377 -64.875 37.625 C-64.50745447 44.68187424 -62.89437408 51.42930131 -57.875 56.625 C-52.37083093 60.63336469 -46.99623765 62.34856658 -40.203125 61.99609375 C-36.70219928 61.43806029 -34.03130351 60.23535894 -30.875 58.625 C-29.885 58.295 -28.895 57.965 -27.875 57.625 C-26.86583967 55.85908113 -26.86583967 55.85908113 -25.875 53.625 C-22.21785714 47.79642857 -22.21785714 47.79642857 -19.875 46.625 C-15.38017976 46.3541288 -10.87705655 46.39339451 -6.375 46.375 C-5.11300781 46.354375 -3.85101563 46.33375 -2.55078125 46.3125 C-1.34808594 46.30734375 -0.14539063 46.3021875 1.09375 46.296875 C2.20169922 46.2875293 3.30964844 46.27818359 4.45117188 46.26855469 C5.33353516 46.38618164 6.21589844 46.50380859 7.125 46.625 C9.64369851 50.40304777 9.70860611 53.25903532 9.125 57.625 C6.51128216 67.50078418 1.13651118 73.99769072 -7.4375 79.375 C-25.21795108 89.03732949 -45.9346239 89.43247269 -65.29296875 84.80859375 C-77.62347788 81.07349656 -87.00560193 73.49525628 -93.875 62.625 C-100.28152015 49.32538855 -101.31473402 32.53063603 -97.25 18.3125 C-92.96735674 6.73574349 -84.58673722 -3.06128496 -73.453125 -8.57421875 C-50.5485452 -18.14150441 -18.891287 -17.53335094 0 0 Z " fill="#FFFFFF" transform="translate(473.875,466.375)"/>
<path d="M0 0 C1.0055896 0.52037842 1.0055896 0.52037842 2.03149414 1.05126953 C11.59915626 6.08980395 20.88123232 11.66359271 30.18164062 17.17382812 C32.84826877 18.74849464 35.52304282 20.30774847 38.203125 21.859375 C38.97793213 22.30941895 39.75273926 22.75946289 40.55102539 23.22314453 C41.96538527 24.04440601 43.38113027 24.86328914 44.79858398 25.67919922 C50.97387286 29.2852189 55.30819238 32.12694632 58.0625 38.875 C59.04945374 42.81224346 59.19138369 46.51439629 59.1953125 50.56640625 C59.19660156 51.84064453 59.19789063 53.11488281 59.19921875 54.42773438 C59.19712402 55.08604248 59.1950293 55.74435059 59.19287109 56.42260742 C59.18750717 58.43480942 59.19283628 60.44678916 59.19921875 62.45898438 C59.19728516 64.3684082 59.19728516 64.3684082 59.1953125 66.31640625 C59.19418457 67.47857666 59.19305664 68.64074707 59.19189453 69.83813477 C59.08360564 72.37965451 58.80943742 74.45950676 58.0625 76.875 C56.7425 76.875 55.4225 76.875 54.0625 76.875 C52.61213798 73.97427595 52.96940773 71.45885092 53 68.22265625 C53.00567993 67.2387516 53.00567993 67.2387516 53.01147461 66.23497009 C53.02783887 63.42618244 53.05594841 60.6175396 53.08300781 57.80883789 C53.10108441 55.75928417 53.11318522 53.70975408 53.125 51.66015625 C53.14240234 49.81756226 53.14240234 49.81756226 53.16015625 47.93774414 C53.20720638 44.83272991 53.20720638 44.83272991 52.0625 41.875 C37.90117589 49.9523065 23.74706399 58.04170926 9.625 66.1875 C8.53719238 66.81470947 7.44938477 67.44191895 6.32861328 68.08813477 C0.8073386 71.26136243 0.8073386 71.26136243 -4.63696289 74.56323242 C-6.9375 75.875 -6.9375 75.875 -8.9375 75.875 C-8.6075 99.305 -8.2775 122.735 -7.9375 146.875 C6.52314337 139.24661249 6.52314337 139.24661249 20.49804688 130.90234375 C25.58973001 127.79210534 25.58973001 127.79210534 28.28198242 128.26416016 C28.86955322 128.4657373 29.45712402 128.66731445 30.0625 128.875 C29.93164062 130.640625 29.93164062 130.640625 29.0625 132.875 C26.52148438 134.734375 26.52148438 134.734375 23.15625 136.625 C22.55752075 136.96499023 21.9587915 137.30498047 21.34191895 137.65527344 C20.07087339 138.37390209 18.79630048 139.086322 17.51855469 139.79296875 C15.59068612 140.85940828 13.67360448 141.94329379 11.7578125 143.03125 C-7.43354746 153.86625213 -7.43354746 153.86625213 -14.9375 152.875 C-17.42354833 151.93873385 -19.55597869 150.99179851 -21.875 149.75 C-22.54684326 149.40235596 -23.21868652 149.05471191 -23.91088867 148.6965332 C-32.40393213 144.22426859 -40.65657747 139.30668291 -48.9140625 134.41796875 C-52.75866498 132.14335854 -56.62230412 129.91447579 -60.5234375 127.73828125 C-61.38735107 127.25270752 -62.25126465 126.76713379 -63.14135742 126.2668457 C-64.74305167 125.36924825 -66.34968066 124.48037342 -67.9621582 123.60229492 C-73.86180578 120.27260722 -78.37117577 116.34739438 -80.9375 109.875 C-81.21165466 106.79034424 -81.21165466 106.79034424 -81.24389648 103.12207031 C-81.25222 102.45158661 -81.26054352 101.78110291 -81.26911926 101.09030151 C-81.29317555 98.87784986 -81.30198706 96.6656935 -81.30859375 94.453125 C-81.31756545 92.90858881 -81.32668739 91.36405349 -81.33595276 89.81951904 C-81.35243485 86.58148084 -81.36014107 83.3435459 -81.36303711 80.10546875 C-81.36841144 75.97169389 -81.40605413 71.83890065 -81.45178127 67.70540237 C-81.48164298 64.51390106 -81.48876267 61.32263316 -81.48976326 58.13100433 C-81.49394976 56.6080553 -81.50632074 55.08510455 -81.52728081 53.56229401 C-81.72492313 37.95720687 -81.72492313 37.95720687 -75.9375 31.875 C-73.90673828 30.02954102 -73.90673828 30.02954102 -71.8828125 28.81640625 C-71.10196289 28.3383252 -70.32111328 27.86024414 -69.51660156 27.36767578 C-68.66549805 26.87509277 -67.81439453 26.38250977 -66.9375 25.875 C-66.01678711 25.3269873 -65.09607422 24.77897461 -64.14746094 24.21435547 C-61.04985125 22.38830487 -57.9344173 20.59665349 -54.8125 18.8125 C-53.68827637 18.16780762 -52.56405273 17.52311523 -51.40576172 16.85888672 C-49.07712889 15.52427391 -46.74710244 14.19213801 -44.41601562 12.86181641 C-41.02887535 10.92859012 -37.64741521 8.98553897 -34.265625 7.04296875 C-32.19824527 5.86140403 -30.13055115 4.68038917 -28.0625 3.5 C-27.10069824 2.94691162 -26.13889648 2.39382324 -25.14794922 1.82397461 C-23.81014404 1.06419312 -23.81014404 1.06419312 -22.4453125 0.2890625 C-21.27959717 -0.37681885 -21.27959717 -0.37681885 -20.09033203 -1.05615234 C-13.14174822 -4.50601625 -6.68580132 -3.58020126 0 0 Z M-42.37109375 17.35205078 C-48.55564394 21.02206829 -54.78515438 24.61626738 -61.00341797 28.22875977 C-61.98971191 28.80295654 -62.97600586 29.37715332 -63.9921875 29.96875 C-64.87374512 30.48115234 -65.75530273 30.99355469 -66.66357422 31.52148438 C-68.45372272 32.58703981 -70.20410937 33.71940624 -71.9375 34.875 C-70.56130285 39.00359144 -67.7869573 40.08482177 -64.1875 42.125 C-63.56617188 42.50140625 -62.94484375 42.8778125 -62.3046875 43.265625 C-58.66811099 45.36539386 -58.66811099 45.36539386 -54.57836914 45.66577148 C-51.47035839 44.73512095 -48.97649965 43.39674475 -46.16796875 41.76953125 C-45.04285889 41.12209961 -43.91774902 40.47466797 -42.75854492 39.80761719 C-41.54726342 39.10108263 -40.33608405 38.39437295 -39.125 37.6875 C-37.87704381 36.96589199 -36.62874862 36.24486996 -35.38012695 35.52441406 C-32.1843679 33.67785244 -28.99377509 31.82257702 -25.80517578 29.96368408 C-24.00097751 28.91200158 -22.19595901 27.86174316 -20.390625 26.81201172 C-15.21849247 23.80362415 -10.04981921 20.78948703 -4.88671875 17.765625 C-0.91807581 15.44273739 3.06450388 13.14696469 7.0625 10.875 C2.16122062 6.31173989 -4.67719608 2.43128172 -11.390625 1.5546875 C-21.93545192 2.88087739 -33.35400394 11.96430148 -42.37109375 17.35205078 Z M24.06640625 25.19140625 C23.21038818 25.70098877 22.35437012 26.21057129 21.47241211 26.7355957 C20.53276611 27.29722412 19.59312012 27.85885254 18.625 28.4375 C9.95747143 33.59343923 1.24623424 38.66631434 -7.5 43.6875 C-16.06922228 48.61161938 -24.58824912 53.5848876 -32.9375 58.875 C-29.01008811 61.98984391 -24.77139983 64.57942922 -20.5 67.1875 C-19.74912109 67.66767578 -18.99824219 68.14785156 -18.22460938 68.64257812 C-17.49177734 69.08666016 -16.75894531 69.53074219 -16.00390625 69.98828125 C-15.0130603 70.60376831 -15.0130603 70.60376831 -14.00219727 71.23168945 C-10.3002964 72.38511369 -7.60796813 70.22500709 -4.34472656 68.52148438 C-3.43174805 68.00908203 -2.51876953 67.49667969 -1.578125 66.96875 C-0.55315918 66.39471436 0.47180664 65.82067871 1.52783203 65.22924805 C2.61177246 64.61734619 3.69571289 64.00544434 4.8125 63.375 C5.93124512 62.7456958 7.04999023 62.1163916 8.20263672 61.46801758 C17.2222866 56.38029236 26.17584562 51.19118242 35.0625 45.875 C36.13540283 45.23377197 36.13540283 45.23377197 37.22998047 44.57958984 C41.5119415 42.01876271 45.7891668 39.45019643 50.0625 36.875 C46.12508903 32.51129453 41.9613538 29.84528879 36.8125 27.0625 C36.0803125 26.65580078 35.348125 26.24910156 34.59375 25.83007812 C29.20239963 22.64816243 29.20239963 22.64816243 24.06640625 25.19140625 Z M-74.9375 40.875 C-76.75495605 42.69245605 -76.08418249 45.52302587 -76.09863281 47.96777344 C-76.10824036 49.27292908 -76.1178479 50.57808472 -76.12774658 51.92279053 C-76.13259516 53.35998358 -76.13687384 54.79717866 -76.140625 56.234375 C-76.14637523 57.70070397 -76.15213298 59.16703291 -76.15789795 60.63336182 C-76.16841973 63.71358593 -76.17425407 66.79378387 -76.17773438 69.87402344 C-76.18320909 73.81622122 -76.20720982 77.75807185 -76.23570633 81.70016098 C-76.25435912 84.73196409 -76.25953979 87.76368422 -76.26107025 90.79553986 C-76.26409345 92.24837382 -76.27211083 93.70120643 -76.28525543 95.15398407 C-76.30236243 97.19080241 -76.29858415 99.22776354 -76.29394531 101.26464844 C-76.29759094 102.42301208 -76.30123657 103.58137573 -76.30499268 104.77484131 C-75.68295041 110.02237373 -73.07245274 113.24096729 -68.98144531 116.46826172 C-64.13843233 119.80144863 -58.9409644 122.57339157 -53.8125 125.4375 C-51.29613091 126.85316028 -48.78239645 128.27344331 -46.26953125 129.6953125 C-45.64559982 130.0478862 -45.0216684 130.4004599 -44.37882996 130.76371765 C-37.84963006 134.46683718 -31.43338545 138.35462764 -25.06787109 142.33227539 C-24.3248877 142.78852295 -23.5819043 143.24477051 -22.81640625 143.71484375 C-22.1829126 144.11050537 -21.54941895 144.50616699 -20.89672852 144.91381836 C-18.53118755 146.17797437 -18.53118755 146.17797437 -13.9375 146.875 C-13.9375 123.445 -13.9375 100.015 -13.9375 75.875 C-24.3871971 67.80279897 -24.3871971 67.80279897 -35.9375 63.875 C-36.2675 71.135 -36.5975 78.395 -36.9375 85.875 C-41.9375 85.875 -41.9375 85.875 -44.8125 83.25 C-45.84375 82.46625 -46.875 81.6825 -47.9375 80.875 C-51.66168608 81.51001074 -51.66168608 81.51001074 -54.9375 82.875 C-55.5975 82.545 -56.2575 82.215 -56.9375 81.875 C-56.88400391 80.95275635 -56.83050781 80.0305127 -56.77539062 79.08032227 C-55.21934074 62.6578969 -55.21934074 62.6578969 -59.5390625 47.47607422 C-63.51235031 44.0257412 -69.53277537 40.875 -74.9375 40.875 Z " fill="#7ED858" transform="translate(205.9375,427.125)"/>
<path d="M0 0 C7.81440038 4.49538086 12.82473547 10.27755309 15.83984375 18.80078125 C18.04477693 27.8162181 16.7307261 36.3037575 12.5 44.5 C7.58774477 52.39518458 -0.23401733 56.95633955 -9.1796875 59.16015625 C-18.16398908 60.37765506 -25.56813906 58.18553043 -33.13671875 53.32421875 C-40.13114807 47.92521297 -43.98308453 41.15051793 -45.5 32.5 C-46.6187249 23.15628358 -43.64957832 15.18329303 -38.3046875 7.578125 C-28.84479404 -3.31508565 -12.93113096 -5.99326977 0 0 Z M-3.46850586 13.26123047 C-5.62028422 14.57334721 -6.71360672 15.73478615 -8.19140625 17.7578125 C-8.66126953 18.38300781 -9.13113281 19.00820313 -9.61523438 19.65234375 C-10.58517149 20.97439029 -11.55390986 22.2973171 -12.52148438 23.62109375 C-13.78334378 25.29778727 -15.13621876 26.90510469 -16.5 28.5 C-17.49 28.5 -18.48 28.5 -19.5 28.5 C-20.304375 27.530625 -21.10875 26.56125 -21.9375 25.5625 C-24.15650625 22.50822192 -24.15650625 22.50822192 -26.5625 21.4375 C-29.27963228 21.52514943 -30.51603381 22.72860161 -32.5 24.5 C-31.9930024 29.22906385 -29.98769648 31.95858307 -27.125 35.6875 C-26.33351562 36.73292969 -25.54203125 37.77835938 -24.7265625 38.85546875 C-22.59236961 41.64008617 -22.59236961 41.64008617 -19.5 43.5 C-16.50678484 43.31895995 -14.97219398 42.91665691 -12.71069336 40.92114258 C-12.17581299 40.25236084 -11.64093262 39.5835791 -11.08984375 38.89453125 C-10.49236328 38.15783203 -9.89488281 37.42113281 -9.27929688 36.66210938 C-8.67150391 35.88673828 -8.06371094 35.11136719 -7.4375 34.3125 C-6.82583984 33.55646484 -6.21417969 32.80042969 -5.58398438 32.02148438 C0.68149579 25.08931623 0.68149579 25.08931623 3.5 16.75 C2.66493352 14.40267436 2.66493352 14.40267436 0.6875 13.0625 C-1.48957201 12.27662276 -1.48957201 12.27662276 -3.46850586 13.26123047 Z " fill="#7ED858" transform="translate(275.5,508.5)"/>
<path d="M0 0 C4.70588235 0.70588235 4.70588235 0.70588235 6 2 C6.09861732 3.81771949 6.12632133 5.63930897 6.12698364 7.45970154 C6.13121338 9.23702164 6.13121338 9.23702164 6.13552856 11.05024719 C6.13350433 12.36196396 6.1314801 13.67368073 6.12939453 15.02514648 C6.13074856 16.41119432 6.1325285 17.79724179 6.13470459 19.18328857 C6.13927915 22.95804556 6.13748916 26.73277535 6.1343255 30.50753284 C6.13180151 34.45042163 6.1341396 38.39330802 6.13571167 42.3361969 C6.13753346 48.959894 6.13512702 55.58357998 6.13037109 62.20727539 C6.1249307 69.87292799 6.12668947 77.53855398 6.1321975 85.20420593 C6.13673102 91.77575516 6.13737793 98.34729637 6.13475883 104.91884667 C6.13319709 108.84806222 6.13299945 112.77726527 6.13629532 116.70648003 C6.13917742 120.40082422 6.13719207 124.09513402 6.13140106 127.78947449 C6.12944112 129.79772392 6.13242466 131.80597625 6.13552856 133.81422424 C6.13270874 135.00192413 6.12988892 136.18962402 6.12698364 137.41331482 C6.12660662 138.4499549 6.12622959 139.48659498 6.12584114 140.5546484 C6 143 6 143 5 145 C3.33388095 145.042721 1.66617115 145.04063832 0 145 C-1.74695058 143.25304942 -1.12613294 140.83202451 -1.12698364 138.4576416 C-1.12980347 137.25448807 -1.13262329 136.05133453 -1.13552856 134.8117218 C-1.13358397 133.46627793 -1.13153579 132.1208342 -1.12939453 130.77539062 C-1.13074854 129.3680161 -1.13252847 127.96064193 -1.13470459 126.55326843 C-1.13927895 122.72072932 -1.13748935 118.88821701 -1.1343255 115.05567741 C-1.13180192 111.05359701 -1.13413944 107.05151897 -1.13571167 103.04943848 C-1.13753337 96.32738837 -1.13512705 89.60534923 -1.13037109 82.88330078 C-1.12492847 75.10061276 -1.12669113 67.31795093 -1.1321975 59.53526354 C-1.13672862 52.86521699 -1.13737918 46.19517834 -1.13475883 39.52513075 C-1.13319605 35.53614338 -1.13300232 31.54716835 -1.13629532 27.55818176 C-1.13917402 23.80884888 -1.13719837 20.05954992 -1.13140106 16.31022072 C-1.13007346 14.93029143 -1.13046759 13.55035931 -1.13266373 12.17043114 C-1.13537517 10.29440789 -1.13138046 8.41837845 -1.12698364 6.5423584 C-1.12660662 5.49004784 -1.12622959 4.43773727 -1.12584114 3.35353851 C-1 1 -1 1 0 0 Z " fill="#000000" transform="translate(334,432)"/>
</svg>
